<svg width="13" height="14" viewBox="0 0 13 14" fill="none" xmlns="http://www.w3.org/2000/svg">
<path d="M6.22649 1.22064C7.88897 1.22064 8.08584 1.22742 8.74259 1.26C9.13746 1.26526 9.52858 1.34414 9.89894 1.49323C10.1675 1.60592 10.4114 1.77855 10.615 2C10.8185 2.22145 10.9772 2.48683 11.0808 2.77903C11.2178 3.18197 11.2903 3.60749 11.2952 4.0371C11.3248 4.75161 11.3313 4.96581 11.3313 6.77452C11.3313 8.58322 11.3251 8.79742 11.2952 9.51193C11.2903 9.94154 11.2178 10.3671 11.0808 10.77C10.9772 11.0622 10.8185 11.3276 10.615 11.549C10.4114 11.7705 10.1675 11.9431 9.89894 12.0558C9.52858 12.2049 9.13746 12.2838 8.74259 12.289C8.08614 12.3213 7.88926 12.3284 6.22649 12.3284C4.56372 12.3284 4.36685 12.3216 3.7104 12.289C3.31553 12.2838 2.92441 12.2049 2.55405 12.0558C2.28547 11.9431 2.04155 11.7705 1.838 11.549C1.63445 11.3276 1.47578 11.0622 1.3722 10.77C1.23517 10.3671 1.16266 9.94154 1.15783 9.51193C1.12818 8.79742 1.12166 8.58322 1.12166 6.77452C1.12166 4.96581 1.12788 4.75161 1.15783 4.0371C1.16266 3.60749 1.23517 3.18197 1.3722 2.77903C1.47578 2.48683 1.63445 2.22145 1.838 2C2.04155 1.77855 2.28547 1.60592 2.55405 1.49323C2.92441 1.34414 3.31553 1.26526 3.7104 1.26C4.36714 1.22774 4.56402 1.22064 6.22649 1.22064V1.22064ZM6.22649 0C4.53645 0 4.32356 0.00774191 3.6594 0.0406451C3.14261 0.0518283 2.63131 0.158284 2.14725 0.355484C1.732 0.525699 1.35589 0.79244 1.04516 1.1371C0.728084 1.47528 0.4827 1.88471 0.32615 2.33677C0.144894 2.86342 0.047045 3.41969 0.036766 3.98193C0.00711601 4.70387 0 4.93548 0 6.77419C0 8.6129 0.00711597 8.84452 0.0373589 9.5671C0.047638 10.1293 0.145487 10.6856 0.326743 11.2123C0.483119 11.6643 0.728299 12.0737 1.04516 12.4119C1.35606 12.7567 1.73238 13.0234 2.14784 13.1935C2.63191 13.3907 3.14321 13.4972 3.65999 13.5084C4.32415 13.5406 4.53615 13.549 6.22709 13.549C7.91802 13.549 8.13002 13.5413 8.79418 13.5084C9.31096 13.4972 9.82226 13.3907 10.3063 13.1935C10.7198 13.0192 11.0953 12.7528 11.4088 12.4116C11.7223 12.0703 11.9668 11.6616 12.1268 11.2116C12.3081 10.685 12.4059 10.1287 12.4162 9.56645C12.4459 8.84451 12.453 8.6129 12.453 6.77419C12.453 4.93548 12.4459 4.70387 12.4156 3.98129C12.4053 3.41905 12.3075 2.86277 12.1262 2.33613C11.9699 1.88412 11.7247 1.4747 11.4078 1.13645C11.0969 0.791716 10.7206 0.52497 10.3051 0.354839C9.82108 0.157639 9.30978 0.0511832 8.79299 0.04C8.12943 0.00774196 7.91654 0 6.22649 0Z" fill="#090914"/>
<path d="M6.22767 3.29688C5.59527 3.29688 4.97708 3.5009 4.45126 3.88314C3.92544 4.26539 3.51561 4.80869 3.27361 5.44434C3.0316 6.07999 2.96828 6.77944 3.09165 7.45425C3.21503 8.12905 3.51955 8.7489 3.96673 9.2354C4.4139 9.72191 4.98363 10.0532 5.60387 10.1875C6.22412 10.3217 6.86702 10.2528 7.45128 9.98949C8.03554 9.7262 8.53491 9.28032 8.88625 8.70825C9.23759 8.13618 9.42512 7.46361 9.42512 6.77558C9.42512 5.85297 9.08824 4.96815 8.48861 4.31577C7.88897 3.66338 7.07568 3.29688 6.22767 3.29688ZM6.22767 9.03365C5.81717 9.03365 5.4159 8.90122 5.07458 8.6531C4.73327 8.40498 4.46725 8.05232 4.31016 7.63971C4.15307 7.2271 4.11197 6.77308 4.19205 6.33506C4.27213 5.89704 4.4698 5.49469 4.76007 5.17889C5.05033 4.8631 5.42015 4.64804 5.82276 4.56091C6.22536 4.47378 6.64268 4.5185 7.02192 4.6894C7.40117 4.86031 7.72532 5.14973 7.95338 5.52107C8.18144 5.89241 8.30316 6.32898 8.30316 6.77558C8.30316 7.37446 8.0845 7.94881 7.69526 8.37228C7.30603 8.79575 6.77812 9.03365 6.22767 9.03365V9.03365Z" fill="#090914"/>
<path d="M9.5508 3.97151C9.96345 3.97151 10.298 3.60756 10.298 3.15861C10.298 2.70965 9.96345 2.3457 9.5508 2.3457C9.13814 2.3457 8.80362 2.70965 8.80362 3.15861C8.80362 3.60756 9.13814 3.97151 9.5508 3.97151Z" fill="#090914"/>
</svg>
