<svg width="11" height="10" viewBox="0 0 11 10" fill="none" xmlns="http://www.w3.org/2000/svg">
<path d="M10.5734 1.9831C10.1882 2.16933 9.78167 2.28573 9.35374 2.35557C9.78167 2.07622 10.124 1.63392 10.2738 1.0985C9.86726 1.35457 9.41793 1.5408 8.9258 1.6572C8.54066 1.2149 7.98434 0.935547 7.38522 0.935547C6.22979 0.935547 5.28833 1.95982 5.28833 3.21689C5.28833 3.40312 5.30973 3.56608 5.35252 3.72903C3.61937 3.63591 2.0574 2.72803 1.00895 1.33129C0.837778 1.68048 0.730794 2.05294 0.730794 2.47196C0.730794 3.26345 1.09454 3.96182 1.67226 4.38084C1.32991 4.35756 1.00895 4.26445 0.709397 4.10149V4.12477C0.709397 5.24216 1.43689 6.17333 2.39975 6.38284C2.22858 6.42939 2.036 6.45267 1.84343 6.45267C1.71505 6.45267 1.56527 6.42939 1.43689 6.40612C1.71505 7.314 2.48534 7.98909 3.4054 7.98909C2.67791 8.59434 1.77924 8.96681 0.794985 8.96681C0.62381 8.96681 0.452635 8.96681 0.302856 8.94353C1.24432 9.59534 2.33556 9.96781 3.53379 9.96781C7.40662 9.96781 9.52491 6.47595 9.52491 3.44968C9.52491 3.35656 9.52491 3.24017 9.52491 3.14705C9.93145 2.84443 10.2952 2.44868 10.5734 1.9831Z" fill="#090914"/>
</svg>
